<svg width="1920" height="1408" viewBox="0 0 1920 1408" fill="none" xmlns="http://www.w3.org/2000/svg">
<rect x="0.666667" y="0.666667" width="126.667" height="126.667" stroke="#CACACA" stroke-width="1.33333"/>
<rect x="0.666667" y="128.667" width="126.667" height="126.667" stroke="#CACACA" stroke-width="1.33333"/>
<rect x="0.666667" y="256.667" width="126.667" height="126.667" stroke="#CACACA" stroke-width="1.33333"/>
<rect x="0.666667" y="384.667" width="126.667" height="126.667" stroke="#CACACA" stroke-width="1.33333"/>
<rect x="0.666667" y="512.667" width="126.667" height="126.667" stroke="#CACACA" stroke-width="1.33333"/>
<rect x="0.666667" y="640.667" width="126.667" height="126.667" stroke="#CACACA" stroke-width="1.33333"/>
<rect x="0.666667" y="768.667" width="126.667" height="126.667" stroke="#CACACA" stroke-width="1.33333"/>
<rect x="0.666667" y="896.667" width="126.667" height="126.667" stroke="#CACACA" stroke-width="1.33333"/>
<rect x="0.666667" y="1024.67" width="126.667" height="126.667" stroke="#CACACA" stroke-width="1.33333"/>
<rect x="0.666667" y="1152.67" width="126.667" height="126.667" stroke="#CACACA" stroke-width="1.33333"/>
<rect x="0.666667" y="1280.67" width="126.667" height="126.667" stroke="#CACACA" stroke-width="1.33333"/>
<rect x="128.667" y="0.666667" width="126.667" height="126.667" stroke="#CACACA" stroke-width="1.33333"/>
<rect x="128.667" y="128.667" width="126.667" height="126.667" stroke="#CACACA" stroke-width="1.33333"/>
<rect x="128.667" y="256.667" width="126.667" height="126.667" stroke="#CACACA" stroke-width="1.33333"/>
<rect x="128.667" y="384.667" width="126.667" height="126.667" stroke="#CACACA" stroke-width="1.33333"/>
<rect x="128.667" y="512.667" width="126.667" height="126.667" stroke="#CACACA" stroke-width="1.33333"/>
<rect x="128.667" y="640.667" width="126.667" height="126.667" stroke="#CACACA" stroke-width="1.33333"/>
<rect x="128.667" y="768.667" width="126.667" height="126.667" stroke="#CACACA" stroke-width="1.33333"/>
<rect x="128.667" y="896.667" width="126.667" height="126.667" stroke="#CACACA" stroke-width="1.33333"/>
<rect x="128.667" y="1024.67" width="126.667" height="126.667" stroke="#CACACA" stroke-width="1.33333"/>
<rect x="128.667" y="1152.67" width="126.667" height="126.667" stroke="#CACACA" stroke-width="1.33333"/>
<rect x="128.667" y="1280.67" width="126.667" height="126.667" stroke="#CACACA" stroke-width="1.33333"/>
<rect x="256.667" y="0.666667" width="126.667" height="126.667" stroke="#CACACA" stroke-width="1.33333"/>
<rect x="256.667" y="128.667" width="126.667" height="126.667" stroke="#CACACA" stroke-width="1.33333"/>
<rect x="256.667" y="256.667" width="126.667" height="126.667" stroke="#CACACA" stroke-width="1.33333"/>
<rect x="256.667" y="384.667" width="126.667" height="126.667" stroke="#CACACA" stroke-width="1.33333"/>
<rect x="256.667" y="512.667" width="126.667" height="126.667" stroke="#CACACA" stroke-width="1.33333"/>
<rect x="256.667" y="640.667" width="126.667" height="126.667" stroke="#CACACA" stroke-width="1.33333"/>
<rect x="256.667" y="768.667" width="126.667" height="126.667" stroke="#CACACA" stroke-width="1.33333"/>
<rect x="256.667" y="896.667" width="126.667" height="126.667" stroke="#CACACA" stroke-width="1.33333"/>
<rect x="256.667" y="1024.67" width="126.667" height="126.667" stroke="#CACACA" stroke-width="1.33333"/>
<rect x="256.667" y="1152.67" width="126.667" height="126.667" stroke="#CACACA" stroke-width="1.33333"/>
<rect x="256.667" y="1280.67" width="126.667" height="126.667" stroke="#CACACA" stroke-width="1.33333"/>
<rect x="384.667" y="0.666667" width="126.667" height="126.667" stroke="#CACACA" stroke-width="1.33333"/>
<rect x="384.667" y="128.667" width="126.667" height="126.667" stroke="#CACACA" stroke-width="1.33333"/>
<rect x="384.667" y="256.667" width="126.667" height="126.667" stroke="#CACACA" stroke-width="1.33333"/>
<rect x="384.667" y="384.667" width="126.667" height="126.667" stroke="#CACACA" stroke-width="1.33333"/>
<rect x="384.667" y="512.667" width="126.667" height="126.667" stroke="#CACACA" stroke-width="1.33333"/>
<rect x="384.667" y="640.667" width="126.667" height="126.667" stroke="#CACACA" stroke-width="1.33333"/>
<rect x="384.667" y="768.667" width="126.667" height="126.667" stroke="#CACACA" stroke-width="1.33333"/>
<rect x="384.667" y="896.667" width="126.667" height="126.667" stroke="#CACACA" stroke-width="1.33333"/>
<rect x="384.667" y="1024.67" width="126.667" height="126.667" stroke="#CACACA" stroke-width="1.33333"/>
<rect x="384.667" y="1152.67" width="126.667" height="126.667" stroke="#CACACA" stroke-width="1.33333"/>
<rect x="384.667" y="1280.67" width="126.667" height="126.667" stroke="#CACACA" stroke-width="1.33333"/>
<rect x="512.667" y="0.666667" width="126.667" height="126.667" stroke="#CACACA" stroke-width="1.33333"/>
<rect x="512.667" y="128.667" width="126.667" height="126.667" stroke="#CACACA" stroke-width="1.33333"/>
<rect x="512.667" y="256.667" width="126.667" height="126.667" stroke="#CACACA" stroke-width="1.33333"/>
<rect x="512.667" y="384.667" width="126.667" height="126.667" stroke="#CACACA" stroke-width="1.33333"/>
<rect x="512.667" y="512.667" width="126.667" height="126.667" stroke="#CACACA" stroke-width="1.33333"/>
<rect x="512.667" y="640.667" width="126.667" height="126.667" stroke="#CACACA" stroke-width="1.33333"/>
<rect x="512.667" y="768.667" width="126.667" height="126.667" stroke="#CACACA" stroke-width="1.33333"/>
<rect x="512.667" y="896.667" width="126.667" height="126.667" stroke="#CACACA" stroke-width="1.33333"/>
<rect x="512.667" y="1024.67" width="126.667" height="126.667" stroke="#CACACA" stroke-width="1.33333"/>
<rect x="512.667" y="1152.67" width="126.667" height="126.667" stroke="#CACACA" stroke-width="1.33333"/>
<rect x="512.667" y="1280.67" width="126.667" height="126.667" stroke="#CACACA" stroke-width="1.33333"/>
<rect x="640.667" y="0.666667" width="126.667" height="126.667" stroke="#CACACA" stroke-width="1.33333"/>
<rect x="640.667" y="128.667" width="126.667" height="126.667" stroke="#CACACA" stroke-width="1.33333"/>
<rect x="640.667" y="256.667" width="126.667" height="126.667" stroke="#CACACA" stroke-width="1.33333"/>
<rect x="640.667" y="384.667" width="126.667" height="126.667" stroke="#CACACA" stroke-width="1.33333"/>
<rect x="640.667" y="512.667" width="126.667" height="126.667" stroke="#CACACA" stroke-width="1.33333"/>
<rect x="640.667" y="640.667" width="126.667" height="126.667" stroke="#CACACA" stroke-width="1.33333"/>
<rect x="640.667" y="768.667" width="126.667" height="126.667" stroke="#CACACA" stroke-width="1.33333"/>
<rect x="640.667" y="896.667" width="126.667" height="126.667" stroke="#CACACA" stroke-width="1.33333"/>
<rect x="640.667" y="1024.67" width="126.667" height="126.667" stroke="#CACACA" stroke-width="1.33333"/>
<rect x="640.667" y="1152.67" width="126.667" height="126.667" stroke="#CACACA" stroke-width="1.33333"/>
<rect x="640.667" y="1280.67" width="126.667" height="126.667" stroke="#CACACA" stroke-width="1.33333"/>
<rect x="768.667" y="0.666667" width="126.667" height="126.667" stroke="#CACACA" stroke-width="1.33333"/>
<rect x="768.667" y="128.667" width="126.667" height="126.667" stroke="#CACACA" stroke-width="1.33333"/>
<rect x="768.667" y="256.667" width="126.667" height="126.667" stroke="#CACACA" stroke-width="1.33333"/>
<rect x="768.667" y="384.667" width="126.667" height="126.667" stroke="#CACACA" stroke-width="1.33333"/>
<rect x="768.667" y="512.667" width="126.667" height="126.667" stroke="#CACACA" stroke-width="1.33333"/>
<rect x="768.667" y="640.667" width="126.667" height="126.667" stroke="#CACACA" stroke-width="1.33333"/>
<rect x="768.667" y="768.667" width="126.667" height="126.667" stroke="#CACACA" stroke-width="1.33333"/>
<rect x="768.667" y="896.667" width="126.667" height="126.667" stroke="#CACACA" stroke-width="1.33333"/>
<rect x="768.667" y="1024.67" width="126.667" height="126.667" stroke="#CACACA" stroke-width="1.33333"/>
<rect x="768.667" y="1152.67" width="126.667" height="126.667" stroke="#CACACA" stroke-width="1.33333"/>
<rect x="768.667" y="1280.67" width="126.667" height="126.667" stroke="#CACACA" stroke-width="1.33333"/>
<rect x="896.667" y="0.666667" width="126.667" height="126.667" stroke="#CACACA" stroke-width="1.33333"/>
<rect x="896.667" y="128.667" width="126.667" height="126.667" stroke="#CACACA" stroke-width="1.33333"/>
<rect x="896.667" y="256.667" width="126.667" height="126.667" stroke="#CACACA" stroke-width="1.33333"/>
<rect x="896.667" y="384.667" width="126.667" height="126.667" stroke="#CACACA" stroke-width="1.33333"/>
<rect x="896.667" y="512.667" width="126.667" height="126.667" stroke="#CACACA" stroke-width="1.33333"/>
<rect x="896.667" y="640.667" width="126.667" height="126.667" stroke="#CACACA" stroke-width="1.33333"/>
<rect x="896.667" y="768.667" width="126.667" height="126.667" stroke="#CACACA" stroke-width="1.33333"/>
<rect x="896.667" y="896.667" width="126.667" height="126.667" stroke="#CACACA" stroke-width="1.33333"/>
<rect x="896.667" y="1024.67" width="126.667" height="126.667" stroke="#CACACA" stroke-width="1.33333"/>
<rect x="896.667" y="1152.67" width="126.667" height="126.667" stroke="#CACACA" stroke-width="1.33333"/>
<rect x="896.667" y="1280.67" width="126.667" height="126.667" stroke="#CACACA" stroke-width="1.33333"/>
<rect x="1024.67" y="0.666667" width="126.667" height="126.667" stroke="#CACACA" stroke-width="1.33333"/>
<rect x="1024.67" y="128.667" width="126.667" height="126.667" stroke="#CACACA" stroke-width="1.33333"/>
<rect x="1024.67" y="256.667" width="126.667" height="126.667" stroke="#CACACA" stroke-width="1.33333"/>
<rect x="1024.67" y="384.667" width="126.667" height="126.667" stroke="#CACACA" stroke-width="1.33333"/>
<rect x="1024.67" y="512.667" width="126.667" height="126.667" stroke="#CACACA" stroke-width="1.33333"/>
<rect x="1024.67" y="640.667" width="126.667" height="126.667" stroke="#CACACA" stroke-width="1.33333"/>
<rect x="1024.67" y="768.667" width="126.667" height="126.667" stroke="#CACACA" stroke-width="1.33333"/>
<rect x="1024.67" y="896.667" width="126.667" height="126.667" stroke="#CACACA" stroke-width="1.33333"/>
<rect x="1024.67" y="1024.67" width="126.667" height="126.667" stroke="#CACACA" stroke-width="1.33333"/>
<rect x="1024.67" y="1152.67" width="126.667" height="126.667" stroke="#CACACA" stroke-width="1.33333"/>
<rect x="1024.67" y="1280.67" width="126.667" height="126.667" stroke="#CACACA" stroke-width="1.33333"/>
<rect x="1152.67" y="0.666667" width="126.667" height="126.667" stroke="#CACACA" stroke-width="1.33333"/>
<rect x="1152.67" y="128.667" width="126.667" height="126.667" stroke="#CACACA" stroke-width="1.33333"/>
<rect x="1152.67" y="256.667" width="126.667" height="126.667" stroke="#CACACA" stroke-width="1.33333"/>
<rect x="1152.67" y="384.667" width="126.667" height="126.667" stroke="#CACACA" stroke-width="1.33333"/>
<rect x="1152.67" y="512.667" width="126.667" height="126.667" stroke="#CACACA" stroke-width="1.33333"/>
<rect x="1152.67" y="640.667" width="126.667" height="126.667" stroke="#CACACA" stroke-width="1.33333"/>
<rect x="1152.67" y="768.667" width="126.667" height="126.667" stroke="#CACACA" stroke-width="1.33333"/>
<rect x="1152.67" y="896.667" width="126.667" height="126.667" stroke="#CACACA" stroke-width="1.33333"/>
<rect x="1152.67" y="1024.67" width="126.667" height="126.667" stroke="#CACACA" stroke-width="1.33333"/>
<rect x="1152.67" y="1152.67" width="126.667" height="126.667" stroke="#CACACA" stroke-width="1.33333"/>
<rect x="1152.67" y="1280.67" width="126.667" height="126.667" stroke="#CACACA" stroke-width="1.33333"/>
<rect x="1280.67" y="0.666667" width="126.667" height="126.667" stroke="#CACACA" stroke-width="1.33333"/>
<rect x="1280.67" y="128.667" width="126.667" height="126.667" stroke="#CACACA" stroke-width="1.33333"/>
<rect x="1280.67" y="256.667" width="126.667" height="126.667" stroke="#CACACA" stroke-width="1.33333"/>
<rect x="1280.67" y="384.667" width="126.667" height="126.667" stroke="#CACACA" stroke-width="1.33333"/>
<rect x="1280.67" y="512.667" width="126.667" height="126.667" stroke="#CACACA" stroke-width="1.33333"/>
<rect x="1280.67" y="640.667" width="126.667" height="126.667" stroke="#CACACA" stroke-width="1.33333"/>
<rect x="1280.67" y="768.667" width="126.667" height="126.667" stroke="#CACACA" stroke-width="1.33333"/>
<rect x="1280.67" y="896.667" width="126.667" height="126.667" stroke="#CACACA" stroke-width="1.33333"/>
<rect x="1280.67" y="1024.67" width="126.667" height="126.667" stroke="#CACACA" stroke-width="1.33333"/>
<rect x="1280.67" y="1152.67" width="126.667" height="126.667" stroke="#CACACA" stroke-width="1.33333"/>
<rect x="1280.67" y="1280.67" width="126.667" height="126.667" stroke="#CACACA" stroke-width="1.33333"/>
<rect x="1408.67" y="0.666667" width="126.667" height="126.667" stroke="#CACACA" stroke-width="1.33333"/>
<rect x="1408.67" y="128.667" width="126.667" height="126.667" stroke="#CACACA" stroke-width="1.33333"/>
<rect x="1408.67" y="256.667" width="126.667" height="126.667" stroke="#CACACA" stroke-width="1.33333"/>
<rect x="1408.67" y="384.667" width="126.667" height="126.667" stroke="#CACACA" stroke-width="1.33333"/>
<rect x="1408.67" y="512.667" width="126.667" height="126.667" stroke="#CACACA" stroke-width="1.33333"/>
<rect x="1408.67" y="640.667" width="126.667" height="126.667" stroke="#CACACA" stroke-width="1.33333"/>
<rect x="1408.67" y="768.667" width="126.667" height="126.667" stroke="#CACACA" stroke-width="1.33333"/>
<rect x="1408.67" y="896.667" width="126.667" height="126.667" stroke="#CACACA" stroke-width="1.33333"/>
<rect x="1408.67" y="1024.67" width="126.667" height="126.667" stroke="#CACACA" stroke-width="1.33333"/>
<rect x="1408.67" y="1152.67" width="126.667" height="126.667" stroke="#CACACA" stroke-width="1.33333"/>
<rect x="1408.67" y="1280.67" width="126.667" height="126.667" stroke="#CACACA" stroke-width="1.33333"/>
<rect x="1536.67" y="0.666667" width="126.667" height="126.667" stroke="#CACACA" stroke-width="1.33333"/>
<rect x="1536.67" y="128.667" width="126.667" height="126.667" stroke="#CACACA" stroke-width="1.33333"/>
<rect x="1536.67" y="256.667" width="126.667" height="126.667" stroke="#CACACA" stroke-width="1.33333"/>
<rect x="1536.67" y="384.667" width="126.667" height="126.667" stroke="#CACACA" stroke-width="1.33333"/>
<rect x="1536.67" y="512.667" width="126.667" height="126.667" stroke="#CACACA" stroke-width="1.33333"/>
<rect x="1536.67" y="640.667" width="126.667" height="126.667" stroke="#CACACA" stroke-width="1.33333"/>
<rect x="1536.67" y="768.667" width="126.667" height="126.667" stroke="#CACACA" stroke-width="1.33333"/>
<rect x="1536.67" y="896.667" width="126.667" height="126.667" stroke="#CACACA" stroke-width="1.33333"/>
<rect x="1536.67" y="1024.67" width="126.667" height="126.667" stroke="#CACACA" stroke-width="1.33333"/>
<rect x="1536.67" y="1152.67" width="126.667" height="126.667" stroke="#CACACA" stroke-width="1.33333"/>
<rect x="1536.67" y="1280.67" width="126.667" height="126.667" stroke="#CACACA" stroke-width="1.33333"/>
<rect x="1664.67" y="0.666667" width="126.667" height="126.667" stroke="#CACACA" stroke-width="1.33333"/>
<rect x="1664.67" y="128.667" width="126.667" height="126.667" stroke="#CACACA" stroke-width="1.33333"/>
<rect x="1664.67" y="256.667" width="126.667" height="126.667" stroke="#CACACA" stroke-width="1.33333"/>
<rect x="1664.67" y="384.667" width="126.667" height="126.667" stroke="#CACACA" stroke-width="1.33333"/>
<rect x="1664.67" y="512.667" width="126.667" height="126.667" stroke="#CACACA" stroke-width="1.33333"/>
<rect x="1664.67" y="640.667" width="126.667" height="126.667" stroke="#CACACA" stroke-width="1.33333"/>
<rect x="1664.67" y="768.667" width="126.667" height="126.667" stroke="#CACACA" stroke-width="1.33333"/>
<rect x="1664.67" y="896.667" width="126.667" height="126.667" stroke="#CACACA" stroke-width="1.33333"/>
<rect x="1664.67" y="1024.67" width="126.667" height="126.667" stroke="#CACACA" stroke-width="1.33333"/>
<rect x="1664.67" y="1152.67" width="126.667" height="126.667" stroke="#CACACA" stroke-width="1.33333"/>
<rect x="1664.67" y="1280.67" width="126.667" height="126.667" stroke="#CACACA" stroke-width="1.33333"/>
<rect x="1792.67" y="0.666667" width="126.667" height="126.667" stroke="#CACACA" stroke-width="1.33333"/>
<rect x="1792.67" y="128.667" width="126.667" height="126.667" stroke="#CACACA" stroke-width="1.33333"/>
<rect x="1792.67" y="256.667" width="126.667" height="126.667" stroke="#CACACA" stroke-width="1.33333"/>
<rect x="1792.67" y="384.667" width="126.667" height="126.667" stroke="#CACACA" stroke-width="1.33333"/>
<rect x="1792.67" y="512.667" width="126.667" height="126.667" stroke="#CACACA" stroke-width="1.33333"/>
<rect x="1792.67" y="640.667" width="126.667" height="126.667" stroke="#CACACA" stroke-width="1.33333"/>
<rect x="1792.67" y="768.667" width="126.667" height="126.667" stroke="#CACACA" stroke-width="1.33333"/>
<rect x="1792.67" y="896.667" width="126.667" height="126.667" stroke="#CACACA" stroke-width="1.33333"/>
<rect x="1792.67" y="1024.67" width="126.667" height="126.667" stroke="#CACACA" stroke-width="1.33333"/>
<rect x="1792.67" y="1152.67" width="126.667" height="126.667" stroke="#CACACA" stroke-width="1.33333"/>
<rect x="1792.67" y="1280.67" width="126.667" height="126.667" stroke="#CACACA" stroke-width="1.33333"/>
</svg>
